<svg width="373" height="373" viewBox="0 0 373 373" fill="none" xmlns="http://www.w3.org/2000/svg">
<path fill-rule="evenodd" clip-rule="evenodd" d="M98.8174 65.5162C106.749 68.1743 115.904 67.7302 124.028 63.6508C132.141 59.5291 137.775 52.314 140.321 44.4024C146.939 49.3322 155.81 51.8403 164.814 50.4161C173.811 48.9889 181.468 43.8605 186.422 37.101C191.254 43.8901 198.899 48.9532 207.9 50.4366C216.935 51.8403 225.768 49.3231 232.539 44.4024C235.165 52.2958 240.823 59.5503 248.99 63.6834C257.084 67.8249 266.28 68.2039 274.295 65.6049C274.192 73.9333 277.416 82.5582 283.821 89.0509C290.31 95.4609 298.935 98.6057 307.302 98.6527C304.756 106.611 305.088 115.787 309.266 123.938C313.39 132.051 320.587 137.756 328.603 140.359C323.634 147.005 321.177 155.908 322.557 164.918C324.025 173.91 329.147 181.522 335.866 186.481C329.136 191.414 323.996 199.003 322.598 208.111C321.138 217.108 323.614 225.943 328.582 232.712C320.662 235.177 313.425 240.948 309.278 249.043C305.144 257.209 304.803 266.328 307.35 274.302C298.968 274.302 290.355 277.431 283.886 283.995C277.389 290.402 274.194 299.009 274.269 307.403C266.384 304.759 257.176 305.141 249.057 309.268C240.876 313.401 235.289 320.626 232.631 328.558C225.88 323.649 217.078 321.132 207.973 322.618C198.966 323.998 191.295 329.061 186.407 335.921C181.622 329.123 173.93 324.072 164.929 322.589C155.925 321.132 147.108 323.696 140.321 328.57C137.758 320.62 132.106 313.41 123.83 309.298C115.771 305.079 106.595 304.679 98.5953 307.364C98.6923 299.015 95.4535 290.417 89.0464 283.924C82.6007 277.502 73.9965 274.358 65.6353 274.307C68.217 266.343 67.8854 257.17 63.6308 248.963C59.5745 240.835 52.3679 235.086 44.3737 232.599C49.3301 225.887 51.7283 217.034 50.4197 208.016C48.9926 199.017 43.8319 191.432 37.1108 186.452C43.8881 181.537 49.0221 173.922 50.4138 164.794C51.8823 155.841 49.4692 146.952 44.4418 140.24C52.3945 137.697 59.5448 131.965 63.764 123.903C67.9032 115.781 68.217 106.62 65.6945 98.6413C74.0942 98.6413 82.7341 95.4882 89.1942 88.9C95.6756 82.5407 98.9387 73.9189 98.8174 65.5162V65.5162ZM363.951 244.14L309.094 249.165L337.515 296.196L283.998 283.699L296.175 337.449L249.144 309.07L243.888 363.927L208.062 322.627L186.783 372.993L164.808 322.426L128.846 363.927L123.818 309.07L76.7856 337.487L89.2807 283.98L35.5534 296.149L63.9121 249.126L9.02456 243.853L50.3545 208.048L0 186.745L50.5529 164.794L9.04821 128.835L63.9121 123.808L35.4853 76.7552L89.0017 89.2729L76.8333 35.5495L123.86 63.9085L129.138 9.04208L164.938 50.3509L186.22 -0.00038601L208.192 50.5495L244.155 9.02995L249.181 63.9085L296.273 35.4077L283.723 88.9978L337.447 76.8022L309.094 123.852L363.954 129.101L322.651 164.924L373 186.206L322.45 208.178L363.951 244.14" fill="#231F20"/>
</svg>
